<mxfile host="app.diagrams.net" agent="Mozilla/5.0 (Windows NT 10.0; Win64; x64) AppleWebKit/537.36 (KHTML, like Gecko) Chrome/131.0.0.0 Safari/537.36 Edg/131.0.0.0" version="25.0.1">
  <diagram id="k4_7zdj2LgiohEXC88Gm" name="Página-1">
    <mxGraphModel dx="872" dy="469" grid="1" gridSize="10" guides="1" tooltips="1" connect="1" arrows="1" fold="1" page="1" pageScale="1" pageWidth="827" pageHeight="1169" math="0" shadow="0">
      <root>
        <mxCell id="0" />
        <mxCell id="1" parent="0" />
        <mxCell id="DMs-mND33qvFp5XIRS6H-1" value="" style="ellipse;whiteSpace=wrap;html=1;aspect=fixed;fillColor=#d5e8d4;strokeColor=#82b366;" vertex="1" parent="1">
          <mxGeometry x="130" y="60" width="50" height="50" as="geometry" />
        </mxCell>
        <mxCell id="DMs-mND33qvFp5XIRS6H-6" style="edgeStyle=orthogonalEdgeStyle;rounded=0;orthogonalLoop=1;jettySize=auto;html=1;exitX=0.5;exitY=1;exitDx=0;exitDy=0;exitPerimeter=0;entryX=0.5;entryY=0;entryDx=0;entryDy=0;" edge="1" parent="1" source="DMs-mND33qvFp5XIRS6H-2" target="DMs-mND33qvFp5XIRS6H-5">
          <mxGeometry relative="1" as="geometry" />
        </mxCell>
        <mxCell id="DMs-mND33qvFp5XIRS6H-2" value="Idade" style="shape=card;whiteSpace=wrap;html=1;fillColor=#fff2cc;strokeColor=#d6b656;" vertex="1" parent="1">
          <mxGeometry x="117.5" y="130" width="75" height="60" as="geometry" />
        </mxCell>
        <mxCell id="DMs-mND33qvFp5XIRS6H-4" style="edgeStyle=orthogonalEdgeStyle;rounded=0;orthogonalLoop=1;jettySize=auto;html=1;exitX=0.5;exitY=1;exitDx=0;exitDy=0;entryX=0.5;entryY=0;entryDx=0;entryDy=0;entryPerimeter=0;" edge="1" parent="1" source="DMs-mND33qvFp5XIRS6H-1" target="DMs-mND33qvFp5XIRS6H-2">
          <mxGeometry relative="1" as="geometry" />
        </mxCell>
        <mxCell id="DMs-mND33qvFp5XIRS6H-8" style="edgeStyle=orthogonalEdgeStyle;rounded=0;orthogonalLoop=1;jettySize=auto;html=1;exitX=0.5;exitY=1;exitDx=0;exitDy=0;entryX=0.5;entryY=0;entryDx=0;entryDy=0;" edge="1" parent="1" source="DMs-mND33qvFp5XIRS6H-5" target="DMs-mND33qvFp5XIRS6H-7">
          <mxGeometry relative="1" as="geometry" />
        </mxCell>
        <mxCell id="DMs-mND33qvFp5XIRS6H-5" value="Nadador(Idade)" style="rounded=0;whiteSpace=wrap;html=1;fillColor=#e1d5e7;strokeColor=#9673a6;" vertex="1" parent="1">
          <mxGeometry x="95" y="210" width="120" height="40" as="geometry" />
        </mxCell>
        <mxCell id="DMs-mND33qvFp5XIRS6H-7" value="" style="ellipse;whiteSpace=wrap;html=1;aspect=fixed;fillColor=#f8cecc;strokeColor=#b85450;" vertex="1" parent="1">
          <mxGeometry x="130" y="270" width="50" height="50" as="geometry" />
        </mxCell>
        <mxCell id="DMs-mND33qvFp5XIRS6H-10" value="Nadador" style="text;html=1;align=center;verticalAlign=middle;resizable=0;points=[];autosize=1;strokeColor=none;fillColor=none;fontSize=27;fontStyle=1" vertex="1" parent="1">
          <mxGeometry x="370" y="30" width="130" height="50" as="geometry" />
        </mxCell>
        <mxCell id="DMs-mND33qvFp5XIRS6H-12" value="Entrada: int Idade&lt;div&gt;Saída: nada&lt;/div&gt;" style="text;html=1;align=center;verticalAlign=middle;resizable=0;points=[];autosize=1;strokeColor=none;fillColor=none;" vertex="1" parent="1">
          <mxGeometry x="375" y="70" width="120" height="40" as="geometry" />
        </mxCell>
        <mxCell id="DMs-mND33qvFp5XIRS6H-15" style="edgeStyle=orthogonalEdgeStyle;rounded=0;orthogonalLoop=1;jettySize=auto;html=1;exitX=0.5;exitY=1;exitDx=0;exitDy=0;entryX=0.5;entryY=0;entryDx=0;entryDy=0;" edge="1" parent="1" source="DMs-mND33qvFp5XIRS6H-13" target="DMs-mND33qvFp5XIRS6H-14">
          <mxGeometry relative="1" as="geometry" />
        </mxCell>
        <mxCell id="DMs-mND33qvFp5XIRS6H-13" value="" style="ellipse;whiteSpace=wrap;html=1;aspect=fixed;fillColor=#d5e8d4;strokeColor=#82b366;" vertex="1" parent="1">
          <mxGeometry x="410" y="110" width="50" height="50" as="geometry" />
        </mxCell>
        <mxCell id="DMs-mND33qvFp5XIRS6H-18" style="edgeStyle=orthogonalEdgeStyle;rounded=0;orthogonalLoop=1;jettySize=auto;html=1;exitX=0;exitY=0.5;exitDx=0;exitDy=0;entryX=0.5;entryY=0;entryDx=0;entryDy=0;" edge="1" parent="1" source="DMs-mND33qvFp5XIRS6H-14" target="DMs-mND33qvFp5XIRS6H-17">
          <mxGeometry relative="1" as="geometry" />
        </mxCell>
        <mxCell id="DMs-mND33qvFp5XIRS6H-21" value="V" style="edgeLabel;html=1;align=center;verticalAlign=middle;resizable=0;points=[];" vertex="1" connectable="0" parent="DMs-mND33qvFp5XIRS6H-18">
          <mxGeometry x="-0.4306" y="1" relative="1" as="geometry">
            <mxPoint as="offset" />
          </mxGeometry>
        </mxCell>
        <mxCell id="DMs-mND33qvFp5XIRS6H-20" style="edgeStyle=orthogonalEdgeStyle;rounded=0;orthogonalLoop=1;jettySize=auto;html=1;exitX=1;exitY=0.5;exitDx=0;exitDy=0;entryX=0.5;entryY=0;entryDx=0;entryDy=0;" edge="1" parent="1" source="DMs-mND33qvFp5XIRS6H-14" target="DMs-mND33qvFp5XIRS6H-19">
          <mxGeometry relative="1" as="geometry" />
        </mxCell>
        <mxCell id="DMs-mND33qvFp5XIRS6H-22" value="F" style="edgeLabel;html=1;align=center;verticalAlign=middle;resizable=0;points=[];" vertex="1" connectable="0" parent="DMs-mND33qvFp5XIRS6H-20">
          <mxGeometry x="-0.2587" y="4" relative="1" as="geometry">
            <mxPoint as="offset" />
          </mxGeometry>
        </mxCell>
        <mxCell id="DMs-mND33qvFp5XIRS6H-14" value="Idade &amp;lt; 5" style="rhombus;whiteSpace=wrap;html=1;fillColor=#ffe6cc;strokeColor=#d79b00;" vertex="1" parent="1">
          <mxGeometry x="395" y="180" width="80" height="80" as="geometry" />
        </mxCell>
        <mxCell id="DMs-mND33qvFp5XIRS6H-62" style="edgeStyle=orthogonalEdgeStyle;rounded=0;orthogonalLoop=1;jettySize=auto;html=1;exitX=0.5;exitY=0;exitDx=0;exitDy=0;entryX=0;entryY=0.5;entryDx=0;entryDy=0;" edge="1" parent="1" source="DMs-mND33qvFp5XIRS6H-17" target="DMs-mND33qvFp5XIRS6H-54">
          <mxGeometry relative="1" as="geometry">
            <Array as="points">
              <mxPoint x="340" y="675" />
            </Array>
          </mxGeometry>
        </mxCell>
        <mxCell id="DMs-mND33qvFp5XIRS6H-17" value="&quot; Idade insuficiente para nadar!&quot;" style="shape=document;whiteSpace=wrap;html=1;boundedLbl=1;fillColor=#dae8fc;strokeColor=#6c8ebf;" vertex="1" parent="1">
          <mxGeometry x="285" y="250" width="110" height="80" as="geometry" />
        </mxCell>
        <mxCell id="DMs-mND33qvFp5XIRS6H-24" style="edgeStyle=orthogonalEdgeStyle;rounded=0;orthogonalLoop=1;jettySize=auto;html=1;exitX=0;exitY=0.5;exitDx=0;exitDy=0;entryX=0.5;entryY=0;entryDx=0;entryDy=0;" edge="1" parent="1" source="DMs-mND33qvFp5XIRS6H-19" target="DMs-mND33qvFp5XIRS6H-23">
          <mxGeometry relative="1" as="geometry" />
        </mxCell>
        <mxCell id="DMs-mND33qvFp5XIRS6H-25" value="V" style="edgeLabel;html=1;align=center;verticalAlign=middle;resizable=0;points=[];" vertex="1" connectable="0" parent="DMs-mND33qvFp5XIRS6H-24">
          <mxGeometry x="-0.427" relative="1" as="geometry">
            <mxPoint as="offset" />
          </mxGeometry>
        </mxCell>
        <mxCell id="DMs-mND33qvFp5XIRS6H-27" style="edgeStyle=orthogonalEdgeStyle;rounded=0;orthogonalLoop=1;jettySize=auto;html=1;exitX=1;exitY=0.5;exitDx=0;exitDy=0;entryX=0.5;entryY=0;entryDx=0;entryDy=0;" edge="1" parent="1" source="DMs-mND33qvFp5XIRS6H-19" target="DMs-mND33qvFp5XIRS6H-26">
          <mxGeometry relative="1" as="geometry" />
        </mxCell>
        <mxCell id="DMs-mND33qvFp5XIRS6H-31" value="F" style="edgeLabel;html=1;align=center;verticalAlign=middle;resizable=0;points=[];" vertex="1" connectable="0" parent="DMs-mND33qvFp5XIRS6H-27">
          <mxGeometry x="-0.3" relative="1" as="geometry">
            <mxPoint as="offset" />
          </mxGeometry>
        </mxCell>
        <mxCell id="DMs-mND33qvFp5XIRS6H-19" value="Idade &amp;lt; 8" style="rhombus;whiteSpace=wrap;html=1;fillColor=#ffe6cc;strokeColor=#d79b00;" vertex="1" parent="1">
          <mxGeometry x="490" y="240" width="80" height="80" as="geometry" />
        </mxCell>
        <mxCell id="DMs-mND33qvFp5XIRS6H-61" style="edgeStyle=orthogonalEdgeStyle;rounded=0;orthogonalLoop=1;jettySize=auto;html=1;exitX=0.5;exitY=0;exitDx=0;exitDy=0;entryX=0;entryY=0.5;entryDx=0;entryDy=0;" edge="1" parent="1" source="DMs-mND33qvFp5XIRS6H-23" target="DMs-mND33qvFp5XIRS6H-53">
          <mxGeometry relative="1" as="geometry">
            <Array as="points">
              <mxPoint x="450" y="645" />
            </Array>
          </mxGeometry>
        </mxCell>
        <mxCell id="DMs-mND33qvFp5XIRS6H-23" value="&quot;Infantil A&quot;" style="shape=document;whiteSpace=wrap;html=1;boundedLbl=1;fillColor=#dae8fc;strokeColor=#6c8ebf;" vertex="1" parent="1">
          <mxGeometry x="409" y="310" width="81" height="50" as="geometry" />
        </mxCell>
        <mxCell id="DMs-mND33qvFp5XIRS6H-29" style="edgeStyle=orthogonalEdgeStyle;rounded=0;orthogonalLoop=1;jettySize=auto;html=1;exitX=0;exitY=0.5;exitDx=0;exitDy=0;entryX=0.5;entryY=0;entryDx=0;entryDy=0;" edge="1" parent="1" source="DMs-mND33qvFp5XIRS6H-26" target="DMs-mND33qvFp5XIRS6H-28">
          <mxGeometry relative="1" as="geometry" />
        </mxCell>
        <mxCell id="DMs-mND33qvFp5XIRS6H-30" value="V" style="edgeLabel;html=1;align=center;verticalAlign=middle;resizable=0;points=[];" vertex="1" connectable="0" parent="DMs-mND33qvFp5XIRS6H-29">
          <mxGeometry x="-0.3759" y="-1" relative="1" as="geometry">
            <mxPoint as="offset" />
          </mxGeometry>
        </mxCell>
        <mxCell id="DMs-mND33qvFp5XIRS6H-33" style="edgeStyle=orthogonalEdgeStyle;rounded=0;orthogonalLoop=1;jettySize=auto;html=1;exitX=1;exitY=0.5;exitDx=0;exitDy=0;entryX=0.5;entryY=0;entryDx=0;entryDy=0;" edge="1" parent="1" source="DMs-mND33qvFp5XIRS6H-26" target="DMs-mND33qvFp5XIRS6H-32">
          <mxGeometry relative="1" as="geometry" />
        </mxCell>
        <mxCell id="DMs-mND33qvFp5XIRS6H-40" value="F" style="edgeLabel;html=1;align=center;verticalAlign=middle;resizable=0;points=[];" vertex="1" connectable="0" parent="DMs-mND33qvFp5XIRS6H-33">
          <mxGeometry x="-0.3143" y="4" relative="1" as="geometry">
            <mxPoint as="offset" />
          </mxGeometry>
        </mxCell>
        <mxCell id="DMs-mND33qvFp5XIRS6H-26" value="Idade &amp;lt; 11" style="rhombus;whiteSpace=wrap;html=1;fillColor=#ffe6cc;strokeColor=#d79b00;" vertex="1" parent="1">
          <mxGeometry x="570" y="300" width="80" height="80" as="geometry" />
        </mxCell>
        <mxCell id="DMs-mND33qvFp5XIRS6H-60" style="edgeStyle=orthogonalEdgeStyle;rounded=0;orthogonalLoop=1;jettySize=auto;html=1;exitX=0.5;exitY=0;exitDx=0;exitDy=0;entryX=0;entryY=0.5;entryDx=0;entryDy=0;" edge="1" parent="1" source="DMs-mND33qvFp5XIRS6H-28" target="DMs-mND33qvFp5XIRS6H-52">
          <mxGeometry relative="1" as="geometry">
            <Array as="points">
              <mxPoint x="530" y="615" />
            </Array>
          </mxGeometry>
        </mxCell>
        <mxCell id="DMs-mND33qvFp5XIRS6H-28" value="&quot;Infantil B&quot;" style="shape=document;whiteSpace=wrap;html=1;boundedLbl=1;fillColor=#dae8fc;strokeColor=#6c8ebf;" vertex="1" parent="1">
          <mxGeometry x="489" y="370" width="81" height="50" as="geometry" />
        </mxCell>
        <mxCell id="DMs-mND33qvFp5XIRS6H-36" style="edgeStyle=orthogonalEdgeStyle;rounded=0;orthogonalLoop=1;jettySize=auto;html=1;exitX=0;exitY=0.5;exitDx=0;exitDy=0;entryX=0.5;entryY=0;entryDx=0;entryDy=0;" edge="1" parent="1" source="DMs-mND33qvFp5XIRS6H-32" target="DMs-mND33qvFp5XIRS6H-35">
          <mxGeometry relative="1" as="geometry" />
        </mxCell>
        <mxCell id="DMs-mND33qvFp5XIRS6H-37" value="V" style="edgeLabel;html=1;align=center;verticalAlign=middle;resizable=0;points=[];" vertex="1" connectable="0" parent="DMs-mND33qvFp5XIRS6H-36">
          <mxGeometry x="-0.5461" y="-1" relative="1" as="geometry">
            <mxPoint as="offset" />
          </mxGeometry>
        </mxCell>
        <mxCell id="DMs-mND33qvFp5XIRS6H-39" style="edgeStyle=orthogonalEdgeStyle;rounded=0;orthogonalLoop=1;jettySize=auto;html=1;exitX=1;exitY=0.5;exitDx=0;exitDy=0;" edge="1" parent="1" source="DMs-mND33qvFp5XIRS6H-32" target="DMs-mND33qvFp5XIRS6H-38">
          <mxGeometry relative="1" as="geometry" />
        </mxCell>
        <mxCell id="DMs-mND33qvFp5XIRS6H-41" value="F" style="edgeLabel;html=1;align=center;verticalAlign=middle;resizable=0;points=[];" vertex="1" connectable="0" parent="DMs-mND33qvFp5XIRS6H-39">
          <mxGeometry x="-0.3" y="-2" relative="1" as="geometry">
            <mxPoint as="offset" />
          </mxGeometry>
        </mxCell>
        <mxCell id="DMs-mND33qvFp5XIRS6H-32" value="Idade &amp;lt; 14" style="rhombus;whiteSpace=wrap;html=1;fillColor=#ffe6cc;strokeColor=#d79b00;" vertex="1" parent="1">
          <mxGeometry x="660" y="360" width="80" height="80" as="geometry" />
        </mxCell>
        <mxCell id="DMs-mND33qvFp5XIRS6H-59" style="edgeStyle=orthogonalEdgeStyle;rounded=0;orthogonalLoop=1;jettySize=auto;html=1;exitX=0.5;exitY=0;exitDx=0;exitDy=0;entryX=0;entryY=0.5;entryDx=0;entryDy=0;" edge="1" parent="1" source="DMs-mND33qvFp5XIRS6H-35" target="DMs-mND33qvFp5XIRS6H-51">
          <mxGeometry relative="1" as="geometry">
            <Array as="points">
              <mxPoint x="620" y="585" />
            </Array>
          </mxGeometry>
        </mxCell>
        <mxCell id="DMs-mND33qvFp5XIRS6H-35" value="&quot;Juvenil A&quot;" style="shape=document;whiteSpace=wrap;html=1;boundedLbl=1;fillColor=#dae8fc;strokeColor=#6c8ebf;" vertex="1" parent="1">
          <mxGeometry x="579" y="430" width="81" height="50" as="geometry" />
        </mxCell>
        <mxCell id="DMs-mND33qvFp5XIRS6H-43" style="edgeStyle=orthogonalEdgeStyle;rounded=0;orthogonalLoop=1;jettySize=auto;html=1;exitX=0;exitY=0.5;exitDx=0;exitDy=0;entryX=0.5;entryY=0;entryDx=0;entryDy=0;" edge="1" parent="1" source="DMs-mND33qvFp5XIRS6H-38" target="DMs-mND33qvFp5XIRS6H-42">
          <mxGeometry relative="1" as="geometry" />
        </mxCell>
        <mxCell id="DMs-mND33qvFp5XIRS6H-46" value="V" style="edgeLabel;html=1;align=center;verticalAlign=middle;resizable=0;points=[];" vertex="1" connectable="0" parent="DMs-mND33qvFp5XIRS6H-43">
          <mxGeometry x="-0.478" y="-3" relative="1" as="geometry">
            <mxPoint as="offset" />
          </mxGeometry>
        </mxCell>
        <mxCell id="DMs-mND33qvFp5XIRS6H-45" style="edgeStyle=orthogonalEdgeStyle;rounded=0;orthogonalLoop=1;jettySize=auto;html=1;exitX=1;exitY=0.5;exitDx=0;exitDy=0;entryX=0.5;entryY=0;entryDx=0;entryDy=0;" edge="1" parent="1" source="DMs-mND33qvFp5XIRS6H-38" target="DMs-mND33qvFp5XIRS6H-44">
          <mxGeometry relative="1" as="geometry" />
        </mxCell>
        <mxCell id="DMs-mND33qvFp5XIRS6H-47" value="F" style="edgeLabel;html=1;align=center;verticalAlign=middle;resizable=0;points=[];" vertex="1" connectable="0" parent="DMs-mND33qvFp5XIRS6H-45">
          <mxGeometry x="-0.444" relative="1" as="geometry">
            <mxPoint as="offset" />
          </mxGeometry>
        </mxCell>
        <mxCell id="DMs-mND33qvFp5XIRS6H-38" value="Idade &amp;lt; 18" style="rhombus;whiteSpace=wrap;html=1;fillColor=#ffe6cc;strokeColor=#d79b00;" vertex="1" parent="1">
          <mxGeometry x="740" y="420" width="80" height="80" as="geometry" />
        </mxCell>
        <mxCell id="DMs-mND33qvFp5XIRS6H-49" style="edgeStyle=orthogonalEdgeStyle;rounded=0;orthogonalLoop=1;jettySize=auto;html=1;exitX=0.5;exitY=0;exitDx=0;exitDy=0;entryX=0;entryY=0.5;entryDx=0;entryDy=0;" edge="1" parent="1" source="DMs-mND33qvFp5XIRS6H-42" target="DMs-mND33qvFp5XIRS6H-48">
          <mxGeometry relative="1" as="geometry">
            <Array as="points">
              <mxPoint x="700" y="555" />
            </Array>
          </mxGeometry>
        </mxCell>
        <mxCell id="DMs-mND33qvFp5XIRS6H-42" value="&quot;Juvenil B&quot;" style="shape=document;whiteSpace=wrap;html=1;boundedLbl=1;fillColor=#dae8fc;strokeColor=#6c8ebf;" vertex="1" parent="1">
          <mxGeometry x="659" y="490" width="81" height="50" as="geometry" />
        </mxCell>
        <mxCell id="DMs-mND33qvFp5XIRS6H-50" style="edgeStyle=orthogonalEdgeStyle;rounded=0;orthogonalLoop=1;jettySize=auto;html=1;exitX=0.5;exitY=0;exitDx=0;exitDy=0;entryX=1;entryY=0.5;entryDx=0;entryDy=0;" edge="1" parent="1" source="DMs-mND33qvFp5XIRS6H-44" target="DMs-mND33qvFp5XIRS6H-48">
          <mxGeometry relative="1" as="geometry">
            <Array as="points">
              <mxPoint x="861" y="555" />
            </Array>
          </mxGeometry>
        </mxCell>
        <mxCell id="DMs-mND33qvFp5XIRS6H-44" value="&quot;Adulto&quot;" style="shape=document;whiteSpace=wrap;html=1;boundedLbl=1;fillColor=#dae8fc;strokeColor=#6c8ebf;" vertex="1" parent="1">
          <mxGeometry x="820" y="490" width="81" height="50" as="geometry" />
        </mxCell>
        <mxCell id="DMs-mND33qvFp5XIRS6H-55" style="edgeStyle=orthogonalEdgeStyle;rounded=0;orthogonalLoop=1;jettySize=auto;html=1;exitX=0.5;exitY=1;exitDx=0;exitDy=0;entryX=1;entryY=0.5;entryDx=0;entryDy=0;" edge="1" parent="1" source="DMs-mND33qvFp5XIRS6H-48" target="DMs-mND33qvFp5XIRS6H-51">
          <mxGeometry relative="1" as="geometry">
            <Array as="points">
              <mxPoint x="780" y="585" />
            </Array>
          </mxGeometry>
        </mxCell>
        <mxCell id="DMs-mND33qvFp5XIRS6H-48" value="" style="ellipse;whiteSpace=wrap;html=1;aspect=fixed;fillColor=#ffe6cc;strokeColor=#d79b00;" vertex="1" parent="1">
          <mxGeometry x="765" y="540" width="30" height="30" as="geometry" />
        </mxCell>
        <mxCell id="DMs-mND33qvFp5XIRS6H-56" style="edgeStyle=orthogonalEdgeStyle;rounded=0;orthogonalLoop=1;jettySize=auto;html=1;exitX=0.5;exitY=1;exitDx=0;exitDy=0;entryX=1;entryY=0.5;entryDx=0;entryDy=0;" edge="1" parent="1" source="DMs-mND33qvFp5XIRS6H-51" target="DMs-mND33qvFp5XIRS6H-52">
          <mxGeometry relative="1" as="geometry">
            <Array as="points">
              <mxPoint x="700" y="615" />
            </Array>
          </mxGeometry>
        </mxCell>
        <mxCell id="DMs-mND33qvFp5XIRS6H-51" value="" style="ellipse;whiteSpace=wrap;html=1;aspect=fixed;fillColor=#ffe6cc;strokeColor=#d79b00;" vertex="1" parent="1">
          <mxGeometry x="685" y="570" width="30" height="30" as="geometry" />
        </mxCell>
        <mxCell id="DMs-mND33qvFp5XIRS6H-57" style="edgeStyle=orthogonalEdgeStyle;rounded=0;orthogonalLoop=1;jettySize=auto;html=1;exitX=0.5;exitY=1;exitDx=0;exitDy=0;entryX=1;entryY=0.5;entryDx=0;entryDy=0;" edge="1" parent="1" source="DMs-mND33qvFp5XIRS6H-52" target="DMs-mND33qvFp5XIRS6H-53">
          <mxGeometry relative="1" as="geometry">
            <Array as="points">
              <mxPoint x="610" y="645" />
            </Array>
          </mxGeometry>
        </mxCell>
        <mxCell id="DMs-mND33qvFp5XIRS6H-52" value="" style="ellipse;whiteSpace=wrap;html=1;aspect=fixed;fillColor=#ffe6cc;strokeColor=#d79b00;" vertex="1" parent="1">
          <mxGeometry x="595" y="600" width="30" height="30" as="geometry" />
        </mxCell>
        <mxCell id="DMs-mND33qvFp5XIRS6H-58" style="edgeStyle=orthogonalEdgeStyle;rounded=0;orthogonalLoop=1;jettySize=auto;html=1;exitX=0.5;exitY=1;exitDx=0;exitDy=0;entryX=1;entryY=0.5;entryDx=0;entryDy=0;" edge="1" parent="1" source="DMs-mND33qvFp5XIRS6H-53" target="DMs-mND33qvFp5XIRS6H-54">
          <mxGeometry relative="1" as="geometry">
            <Array as="points">
              <mxPoint x="530" y="675" />
            </Array>
          </mxGeometry>
        </mxCell>
        <mxCell id="DMs-mND33qvFp5XIRS6H-53" value="" style="ellipse;whiteSpace=wrap;html=1;aspect=fixed;fillColor=#ffe6cc;strokeColor=#d79b00;" vertex="1" parent="1">
          <mxGeometry x="515" y="630" width="30" height="30" as="geometry" />
        </mxCell>
        <mxCell id="DMs-mND33qvFp5XIRS6H-64" style="edgeStyle=orthogonalEdgeStyle;rounded=0;orthogonalLoop=1;jettySize=auto;html=1;exitX=0.5;exitY=1;exitDx=0;exitDy=0;entryX=0.5;entryY=0;entryDx=0;entryDy=0;" edge="1" parent="1" source="DMs-mND33qvFp5XIRS6H-54" target="DMs-mND33qvFp5XIRS6H-63">
          <mxGeometry relative="1" as="geometry" />
        </mxCell>
        <mxCell id="DMs-mND33qvFp5XIRS6H-54" value="" style="ellipse;whiteSpace=wrap;html=1;aspect=fixed;fillColor=#ffe6cc;strokeColor=#d79b00;" vertex="1" parent="1">
          <mxGeometry x="420" y="660" width="30" height="30" as="geometry" />
        </mxCell>
        <mxCell id="DMs-mND33qvFp5XIRS6H-63" value="" style="ellipse;whiteSpace=wrap;html=1;aspect=fixed;fillColor=#f8cecc;strokeColor=#b85450;" vertex="1" parent="1">
          <mxGeometry x="410" y="710" width="50" height="50" as="geometry" />
        </mxCell>
        <mxCell id="DMs-mND33qvFp5XIRS6H-65" value="Main" style="text;html=1;align=center;verticalAlign=middle;resizable=0;points=[];autosize=1;strokeColor=none;fillColor=none;fontSize=27;fontStyle=1" vertex="1" parent="1">
          <mxGeometry x="120" y="10" width="80" height="50" as="geometry" />
        </mxCell>
      </root>
    </mxGraphModel>
  </diagram>
</mxfile>
